Coordinates
version=1
nRows=13
nColumns=36
inDegrees=yes

Units are S.I. units (second, meters, Newtons, ...)
If the header above contains a line with 'inDegrees', this indicates whether rotational values are in degrees (yes) or radians (no).

endheader
time	pelvis_tilt	pelvis_list	pelvis_rotation	pelvis_tx	pelvis_ty	pelvis_tz	hip_flexion_r	hip_adduction_r	hip_rotation_r	knee_angle_r	knee_angle_r_beta	ankle_angle_r	subtalar_angle_r	mtp_angle_r	hip_flexion_l	hip_adduction_l	hip_rotation_l	knee_angle_l	knee_angle_l_beta	ankle_angle_l	subtalar_angle_l	mtp_angle_l	lumbar_extension	lumbar_bending	lumbar_rotation	arm_flex_r	arm_add_r	arm_rot_r	elbow_flex_r	pro_sup_r	arm_flex_l	arm_add_l	arm_rot_l	elbow_flex_l	pro_sup_l
      3.26250000	     -9.38301012	     -5.71601599	      5.12512642	     -0.34315458	      1.22522190	     -0.05378537	     38.40758343	     -1.20770568	     -3.11834128	     47.40445875	      0.82736389	    -31.91471526	    -27.83387641	     -7.49999987	     14.69703704	     -7.06013059	      2.76898312	     49.23478066	      0.85930903	    -21.71117311	    -22.28539643	     -7.49999987	    -14.35035354	      7.47735908	     -0.73210473	    -28.89333020	    -26.75241268	      1.91427997	    140.34547153	     88.77885262	    -21.36744766	    -19.13073961	     11.76551774	    132.25826400	     83.82260437
      3.26666670	     -9.33256570	     -5.52716281	      5.22733537	     -0.33444673	      1.22082629	     -0.05332547	     37.97522735	     -1.46015102	     -2.42253299	     46.00788389	      0.80298906	    -31.62084418	    -26.44137763	     -7.49999987	     15.29817279	     -7.09031027	      2.91176088	     48.80122221	      0.85174201	    -21.15336599	    -23.74846029	     -7.49999987	    -14.16369363	      7.40068316	     -0.84497557	    -28.77886311	    -26.82260117	      1.78581333	    140.15593494	     90.08947271	    -21.42415819	    -19.67001564	     11.89421972	    132.25692531	     84.53227541
      3.27083330	     -9.41578579	     -5.27748510	      5.11863864	     -0.32757965	      1.22127336	     -0.04958199	     37.77048633	     -1.44310668	     -1.56180393	     44.55510259	      0.77763324	    -30.67696701	    -25.14767162	     -7.49999987	     15.84608376	     -7.18296952	      2.79875121	     47.68261746	      0.83221867	    -20.49727435	    -23.93502459	     -7.49999987	    -14.14447681	      7.07469444	     -0.96167759	    -28.85294438	    -26.63332893	      2.27511307	    139.95261502	     87.85584110	    -21.71391576	    -20.41644153	     12.05325277	    132.62556055	     82.64706934
      3.27500000	     -9.44505011	     -5.38056348	      4.94841715	     -0.32295582	      1.22135540	     -0.05031608	     37.53714603	     -1.16825505	     -1.12105869	     42.92252121	      0.74913932	    -29.77349533	    -22.94001185	     -7.49999987	     15.91780537	     -7.31094909	      2.85229791	     46.14018805	      0.80529820	    -20.18839252	    -23.12312591	     -7.49999987	    -14.26933260	      7.23679680	     -1.03637482	    -28.78290789	    -26.71467419	      2.65765567	    139.87701954	     87.64424846	    -22.36966819	    -20.57128251	     12.03511400	    132.97437601	     82.54644931
      3.27916670	     -9.51511317	     -5.10507342	      4.76958895	     -0.31447319	      1.21736696	     -0.05165623	     37.08419332	     -1.47323232	     -0.45458312	     41.26507551	      0.72021143	    -29.07466065	    -21.16086455	     -7.49999987	     16.29228625	     -6.88985664	      3.26588005	     45.15581945	      0.78811773	    -20.52830489	    -23.31540555	     -7.49999987	    -14.16643139	      7.00916578	     -1.28247502	    -28.49620219	    -26.81611187	      3.35792623	    139.49128299	     90.75024534	    -22.99347272	    -20.77833515	     11.73342615	    133.00249768	     85.07208417
      3.28333330	     -9.47709096	     -4.78501849	      4.62159756	     -0.30748660	      1.21707471	     -0.05041158	     36.49564116	     -1.73867372	      0.09947610	     39.22499001	      0.68460522	    -28.23018007	    -18.66913593	     -7.49999987	     16.23138018	     -6.40588486	      3.18349665	     43.71060077	      0.76289390	    -20.26318227	    -23.23482421	     -7.49999987	    -14.15366088	      6.74195042	     -1.28336871	    -28.62629576	    -26.52617633	      3.72087372	    139.21065153	     90.49835738	    -23.28639247	    -21.00490858	     11.99667222	    132.99185630	     84.91615014
      3.28750000	     -9.62586211	     -4.40664646	      4.53523212	     -0.30248881	      1.21416314	     -0.04955312	     36.18047127	     -2.11302129	      1.35184344	     37.69180050	      0.65784602	    -27.87566502	    -17.19430506	     -7.49999987	     17.17431815	     -6.04698858	      3.60182935	     42.67243621	      0.74477451	    -20.22684202	    -23.44320695	     -7.49999987	    -14.04601618	      6.43839834	     -1.27842552	    -28.77362985	    -26.19450326	      4.06560816	    138.86078924	     90.45116302	    -23.37831408	    -21.17227103	     12.11733429	    132.81711270	     84.88038746
      3.29166670	     -9.83496610	     -3.79752487	      4.40959599	     -0.29704654	      1.21241030	     -0.04707230	     36.01165332	     -2.80218106	      1.95456170	     35.88214711	      0.62626161	    -28.18851592	    -16.10494039	     -7.49999987	     18.05664818	     -5.53132916	      4.21467837	     41.69964605	      0.72779612	    -20.89629565	    -22.19785261	     -7.49999987	    -13.94687989	      5.81867909	     -1.25287869	    -28.84337464	    -25.91285714	      4.40933466	    138.66799143	     90.10558173	    -23.69760684	    -21.16352978	     12.24797569	    132.70171528	     84.58443958
      3.29583330	     -9.64566603	     -3.27528196	      4.32947578	     -0.29096576	      1.21431535	     -0.04740105	     35.30885415	     -3.36443887	      2.49966030	     33.97665132	      0.59300443	    -28.51181592	    -15.25919658	     -7.49999987	     18.01058824	     -5.00756837	      4.58177849	     40.15988999	      0.70092231	    -21.42414940	    -21.46218504	     -7.49999987	    -14.35798277	      5.26089062	     -1.18965063	    -28.66541899	    -25.79231359	      5.09193001	    138.47671621	     89.06904025	    -23.63316157	    -21.42183207	     12.19300324	    132.43316451	     83.64073655
      3.30000000	     -9.45815366	     -2.64735236	      4.41242668	     -0.28695712	      1.21141528	     -0.04532836	     34.82010464	     -4.09364882	      2.74415457	     32.19510104	      0.56191052	    -29.09155270	    -14.13206527	     -7.49999987	     18.42890123	     -4.52440295	      4.81291053	     38.97830670	      0.68029979	    -22.20441695	    -19.82496249	     -7.49999987	    -14.92677397	      4.62393688	     -1.30542768	    -28.53935418	    -25.25822316	      5.51303910	    138.23154917	     89.34199704	    -23.72947113	    -21.43928976	     11.95441082	    132.28195256	     83.73904566
      3.30416670	     -9.20503566	     -2.14879240	      4.29216405	     -0.28104737	      1.20768601	     -0.04478163	     34.44263528	     -4.49658515	      3.15848957	     30.84841042	      0.53840633	    -29.67502482	    -13.28657948	     -7.49999987	     18.65300374	     -4.19584376	      4.66209947	     38.06300824	      0.66432482	    -21.92196117	    -18.40912694	     -7.49999987	    -15.66725589	      3.99675852	     -1.93585485	    -27.55350083	    -25.23513790	      6.51545887	    137.80624808	     91.26026362	    -24.36766253	    -21.18555130	     10.83394168	    132.50907930	     84.62209699
      3.30833330	     -9.41579192	     -1.68295860	      4.31934464	     -0.27661938	      1.20398989	     -0.04408761	     34.66479217	     -5.07287781	      3.25154356	     29.64359253	      0.51737829	    -29.91555190	    -12.82959118	     -7.49999987	     19.61197720	     -3.64211190	      4.85161654	     37.29533311	      0.65092636	    -21.46257038	    -17.66014081	     -7.49999987	    -15.72798625	      3.49869948	     -1.76971049	    -27.90554257	    -24.71912049	      6.56815093	    137.94286626	     88.73754634	    -24.26895179	    -21.37979444	     11.07122436	    132.53905530	     82.54048093
      3.31250000	     -9.42047589	     -1.11608367	      4.29065753	     -0.26842301	      1.19667117	     -0.04559691	     34.57138495	     -5.76100386	      3.19970739	     28.28705628	      0.49370227	    -30.42139550	    -12.09847520	     -7.49999987	     19.95301873	     -2.94847337	      4.70179252	     36.68616923	      0.64029444	    -20.69857181	    -17.19102732	     -7.49999987	    -15.85039702	      2.80388328	     -1.90233207	    -27.94725352	    -24.59992982	      6.60570972	    137.98232768	     88.91776748	    -24.40142202	    -21.48068570	     11.06543714	    132.60281154	     82.66620105
